Normalized EMG Linear Envelopes
nRows=184
nColumns=4

endheader
time	 med_gas_r	  soleus_r	 tib_ant_r	
2.74982	  0.162920	  0.226236	  0.009772	
2.81232	  0.169315	  0.225204	  0.010155	
2.87482	  0.174656	  0.225547	  0.010437	
2.93731	  0.178844	  0.227613	  0.010533	
2.99981	  0.182749	  0.229981	  0.010432	
3.0623	  0.186049	  0.233254	  0.010204	
3.1248	  0.187129	  0.239689	  0.009974	
3.1873	  0.185036	  0.246200	  0.009842	
3.24979	  0.180994	  0.247070	  0.009792	
3.31229	  0.177619	  0.242402	  0.009758	
3.37478	  0.175572	  0.236260	  0.009708	
3.43728	  0.173821	  0.231038	  0.009593	
3.49978	  0.172864	  0.227195	  0.009392	
3.56227	  0.174513	  0.224918	  0.009210	
3.62477	  0.179021	  0.224118	  0.009226	
3.68726	  0.183869	  0.224717	  0.009516	
3.74976	  0.185841	  0.226954	  0.009942	
3.81226	  0.183771	  0.230816	  0.010272	
3.87475	  0.179453	  0.235667	  0.010388	
3.93725	  0.175990	  0.239470	  0.010365	
3.99974	  0.175244	  0.240309	  0.010382	
4.06224	  0.177065	  0.238564	  0.010557	
4.12474	  0.179506	  0.235473	  0.010825	
4.18723	  0.180756	  0.232033	  0.011034	
4.24973	  0.181754	  0.230167	  0.011113	
4.31222	  0.184547	  0.232007	  0.011045	
4.37472	  0.188744	  0.236455	  0.010800	
4.43722	  0.191581	  0.239723	  0.010407	
4.49971	  0.190203	  0.240071	  0.010013	
4.56221	  0.183345	  0.238165	  0.009828	
4.6247	  0.173015	  0.234640	  0.009943	
4.6872	  0.164268	  0.230751	  0.010198	
4.7497	  0.161342	  0.228383	  0.010373	
4.81219	  0.164106	  0.228095	  0.010426	
4.87469	  0.168536	  0.230203	  0.010435	
4.93718	  0.170614	  0.235037	  0.010426	
4.99968	  0.169620	  0.240080	  0.010409	
5.06218	  0.167745	  0.241576	  0.010429	
5.12467	  0.167339	  0.239141	  0.010516	
5.18717	  0.169000	  0.235830	  0.010613	
5.24966	  0.172094	  0.234524	  0.010592	
5.31216	  0.176073	  0.235933	  0.010368	
5.37466	  0.181027	  0.239637	  0.010053	
5.43715	  0.187252	  0.246850	  0.009947	
5.49965	  0.194417	  0.261689	  0.010348	
5.56214	  0.201827	  0.287711	  0.011442	
5.62464	  0.209026	  0.321789	  0.013214	
5.68714	  0.215199	  0.350432	  0.015192	
5.74963	  0.218927	  0.356884	  0.016634	
5.81213	  0.220829	  0.338587	  0.017376	
5.87462	  0.225547	  0.312119	  0.017950	
5.93712	  0.237065	  0.295718	  0.018779	
5.99962	  0.252189	  0.293898	  0.019997	
6.06211	  0.262521	  0.300473	  0.021886	
6.12461	  0.262617	  0.308081	  0.024969	
6.1871	  0.253652	  0.312758	  0.029762	
6.2496	  0.240497	  0.314575	  0.036644	
6.3121	  0.228370	  0.315196	  0.045627	
6.37459	  0.222358	  0.314537	  0.055319	
6.43709	  0.226731	  0.313146	  0.063300	
6.49958	  0.242042	  0.315444	  0.069133	
6.56208	  0.263620	  0.324215	  0.074484	
6.62458	  0.284640	  0.335321	  0.079724	
6.68707	  0.301644	  0.342869	  0.084127	
6.74957	  0.316348	  0.345907	  0.088111	
6.81206	  0.330820	  0.348468	  0.092233	
6.87456	  0.342477	  0.356725	  0.096268	
6.93706	  0.346987	  0.374769	  0.100999	
6.99955	  0.344578	  0.399121	  0.109789	
7.06205	  0.339513	  0.420120	  0.127156	
7.12454	  0.335387	  0.433654	  0.154398	
7.18704	  0.333792	  0.447631	  0.186737	
7.24954	  0.336405	  0.470613	  0.216352	
7.31203	  0.349011	  0.498616	  0.238873	
7.37453	  0.379513	  0.519590	  0.256586	
7.43702	  0.423499	  0.526217	  0.275380	
7.49952	  0.460201	  0.520755	  0.299088	
7.56202	  0.478582	  0.512359	  0.325928	
7.62451	  0.492759	  0.510255	  0.349880	
7.68701	  0.512769	  0.517357	  0.367845	
7.7495	  0.526350	  0.529615	  0.385736	
7.812	  0.525119	  0.537883	  0.414028	
7.8745	  0.515562	  0.533514	  0.458301	
7.93699	  0.503610	  0.517257	  0.516415	
7.99949	  0.498843	  0.499970	  0.579550	
8.06198	  0.514580	  0.495113	  0.633841	
8.12448	  0.542862	  0.509811	  0.666913	
8.18698	  0.559226	  0.537917	  0.674789	
8.24947	  0.555789	  0.564807	  0.661896	
8.31197	  0.543343	  0.580683	  0.637005	
8.37446	  0.534128	  0.585240	  0.610210	
8.43696	  0.535088	  0.585906	  0.591072	
8.49946	  0.545248	  0.595435	  0.585482	
8.56195	  0.561624	  0.619509	  0.591518	
8.62445	  0.583036	  0.644279	  0.600242	
8.68694	  0.604476	  0.647200	  0.605120	
8.74944	  0.624876	  0.619951	  0.610271	
8.81194	  0.651576	  0.574029	  0.625170	
8.87443	  0.684197	  0.529961	  0.651195	
8.93693	  0.710753	  0.507399	  0.677340	
8.99942	  0.722656	  0.518041	  0.691354	
9.06192	  0.721622	  0.559948	  0.694166	
9.12442	  0.714134	  0.617186	  0.699097	
9.18691	  0.704333	  0.666957	  0.713976	
9.24941	  0.689673	  0.694749	  0.730313	
9.3119	  0.667239	  0.705510	  0.736558	
9.3744	  0.644411	  0.713171	  0.736409	
9.4369	  0.633854	  0.721257	  0.743510	
9.49939	  0.640546	  0.722896	  0.758315	
9.56189	  0.657269	  0.714125	  0.766411	
9.62438	  0.673101	  0.697478	  0.763875	
9.68688	  0.684305	  0.677075	  0.764092	
9.74938	  0.692244	  0.655992	  0.777533	
9.81187	  0.700467	  0.637177	  0.800461	
9.87437	  0.710184	  0.624753	  0.819810	
9.93686	  0.713004	  0.622156	  0.825999	
9.99936	  0.705113	  0.625265	  0.824388	
10.0619	  0.696733	  0.618696	  0.824180	
10.1244	  0.695580	  0.590681	  0.820011	
10.1868	  0.698599	  0.549881	  0.799469	
10.2493	  0.695524	  0.515326	  0.760192	
10.3118	  0.681161	  0.500371	  0.711179	
10.3743	  0.670373	  0.510312	  0.665918	
10.4368	  0.677672	  0.538036	  0.633959	
10.4993	  0.694910	  0.564829	  0.612398	
10.5618	  0.710810	  0.575927	  0.590847	
10.6243	  0.721072	  0.571905	  0.569028	
10.6868	  0.720711	  0.566218	  0.558476	
10.7493	  0.710325	  0.572325	  0.564613	
10.8118	  0.694500	  0.589347	  0.580384	
10.8743	  0.680071	  0.602374	  0.596836	
10.9368	  0.682013	  0.598581	  0.610753	
10.9993	  0.707307	  0.581189	  0.623488	
11.0618	  0.741075	  0.563859	  0.635097	
11.1243	  0.761064	  0.554009	  0.639520	
11.1868	  0.755861	  0.549191	  0.627202	
11.2493	  0.727310	  0.544369	  0.594723	
11.3118	  0.678955	  0.537058	  0.551829	
11.3743	  0.614933	  0.526914	  0.516245	
11.4368	  0.545987	  0.509101	  0.497766	
11.4993	  0.475645	  0.478386	  0.488286	
11.5618	  0.396137	  0.442050	  0.476235	
11.6243	  0.309509	  0.410598	  0.466705	
11.6868	  0.233879	  0.381630	  0.468711	
11.7492	  0.189015	  0.348497	  0.470714	
11.8117	  0.184979	  0.313820	  0.452712	
11.8742	  0.219474	  0.287243	  0.413337	
11.9367	  0.279570	  0.276838	  0.366552	
11.9992	  0.344040	  0.282667	  0.322499	
12.0617	  0.388213	  0.295218	  0.284764	
12.1242	  0.401031	  0.300726	  0.257233	
12.1867	  0.398767	  0.292390	  0.242743	
12.2492	  0.399491	  0.277266	  0.237270	
12.3117	  0.392874	  0.268498	  0.231488	
12.3742	  0.367924	  0.272062	  0.220801	
12.4367	  0.346789	  0.281818	  0.210361	
12.4992	  0.353784	  0.286943	  0.204801	
12.5617	  0.375772	  0.286062	  0.197669	
12.6242	  0.381689	  0.285054	  0.179027	
12.6867	  0.363121	  0.279323	  0.149545	
12.7492	  0.335645	  0.257380	  0.119818	
12.8117	  0.311739	  0.221297	  0.099061	
12.8742	  0.296005	  0.186631	  0.089407	
12.9367	  0.303257	  0.167042	  0.088541	
12.9992	  0.346193	  0.167685	  0.093127	
13.0617	  0.399212	  0.186169	  0.099137	
13.1242	  0.416678	  0.212561	  0.103190	
13.1867	  0.397049	  0.233975	  0.104758	
13.2492	  0.384920	  0.247463	  0.104301	
13.3116	  0.401577	  0.260246	  0.101374	
13.3741	  0.419089	  0.272688	  0.095573	
13.4366	  0.412153	  0.277611	  0.087432	
13.4991	  0.391661	  0.274238	  0.079494	
13.5616	  0.374347	  0.264851	  0.074800	
13.6241	  0.357387	  0.248947	  0.073489	
13.6866	  0.336433	  0.233031	  0.074035	
13.7491	  0.322753	  0.229422	  0.075192	
13.8116	  0.330422	  0.236701	  0.074063	
13.8741	  0.351015	  0.237287	  0.067395	
13.9366	  0.353074	  0.223372	  0.056768	
13.9991	  0.324064	  0.213098	  0.047590	
14.0616	  0.297386	  0.233251	  0.042513	
14.1241	  0.312970	  0.293808	  0.039959	
14.1866	  0.368739	  0.381475	  0.037973	
